<svg width="123" height="28" viewBox="0 0 123 28" fill="none" xmlns="http://www.w3.org/2000/svg">
<path d="M43.4921 20.252C42.4961 20.252 41.5721 20.096 40.7201 19.784C39.8681 19.46 39.1301 19.004 38.5061 18.416C37.8941 17.828 37.4141 17.138 37.0661 16.346C36.7181 15.542 36.5441 14.66 36.5441 13.7C36.5441 12.74 36.7181 11.864 37.0661 11.072C37.4141 10.268 37.9001 9.572 38.5241 8.984C39.1481 8.396 39.8861 7.946 40.7381 7.634C41.6021 7.31 42.5441 7.148 43.5641 7.148C44.7521 7.148 45.8141 7.346 46.7501 7.742C47.6861 8.138 48.4601 8.708 49.0721 9.452L46.8041 11.504C46.3721 11.036 45.9041 10.688 45.4001 10.46C44.9081 10.22 44.3561 10.1 43.7441 10.1C43.2041 10.1 42.7121 10.184 42.2681 10.352C41.8241 10.52 41.4461 10.766 41.1341 11.09C40.8221 11.402 40.5761 11.78 40.3961 12.224C40.2281 12.656 40.1441 13.148 40.1441 13.7C40.1441 14.228 40.2281 14.714 40.3961 15.158C40.5761 15.602 40.8221 15.986 41.1341 16.31C41.4461 16.622 41.8181 16.868 42.2501 17.048C42.6941 17.216 43.1801 17.3 43.7081 17.3C44.2361 17.3 44.7521 17.216 45.2561 17.048C45.7601 16.868 46.2701 16.568 46.7861 16.148L48.7841 18.65C48.0641 19.166 47.2301 19.562 46.2821 19.838C45.3341 20.114 44.4041 20.252 43.4921 20.252ZM45.6341 18.182V13.43H48.7841V18.65L45.6341 18.182ZM57.3977 20.252C56.3897 20.252 55.4597 20.09 54.6077 19.766C53.7557 19.442 53.0117 18.986 52.3757 18.398C51.7517 17.798 51.2657 17.102 50.9177 16.31C50.5697 15.518 50.3957 14.648 50.3957 13.7C50.3957 12.752 50.5697 11.882 50.9177 11.09C51.2657 10.298 51.7517 9.608 52.3757 9.02C53.0117 8.42 53.7557 7.958 54.6077 7.634C55.4597 7.31 56.3897 7.148 57.3977 7.148C58.4177 7.148 59.3477 7.31 60.1877 7.634C61.0397 7.958 61.7777 8.42 62.4017 9.02C63.0257 9.608 63.5117 10.298 63.8597 11.09C64.2197 11.882 64.3997 12.752 64.3997 13.7C64.3997 14.648 64.2197 15.524 63.8597 16.328C63.5117 17.12 63.0257 17.81 62.4017 18.398C61.7777 18.986 61.0397 19.442 60.1877 19.766C59.3477 20.09 58.4177 20.252 57.3977 20.252ZM57.3977 17.3C57.8777 17.3 58.3217 17.216 58.7297 17.048C59.1497 16.88 59.5097 16.64 59.8097 16.328C60.1217 16.004 60.3617 15.62 60.5297 15.176C60.7097 14.732 60.7997 14.24 60.7997 13.7C60.7997 13.148 60.7097 12.656 60.5297 12.224C60.3617 11.78 60.1217 11.402 59.8097 11.09C59.5097 10.766 59.1497 10.52 58.7297 10.352C58.3217 10.184 57.8777 10.1 57.3977 10.1C56.9177 10.1 56.4677 10.184 56.0477 10.352C55.6397 10.52 55.2797 10.766 54.9677 11.09C54.6677 11.402 54.4277 11.78 54.2477 12.224C54.0797 12.656 53.9957 13.148 53.9957 13.7C53.9957 14.24 54.0797 14.732 54.2477 15.176C54.4277 15.62 54.6677 16.004 54.9677 16.328C55.2797 16.64 55.6397 16.88 56.0477 17.048C56.4677 17.216 56.9177 17.3 57.3977 17.3Z" fill="white"/>
<path d="M74.6903 7.4H78.2543V20H74.6903V7.4ZM69.8303 20H66.2663V7.4H69.8303V20ZM74.9423 15.086H69.5783V12.134H74.9423V15.086ZM85.5023 20.162C84.4343 20.162 83.4863 19.946 82.6583 19.514C81.8303 19.082 81.1763 18.488 80.6963 17.732C80.2283 16.964 79.9943 16.088 79.9943 15.104C79.9943 14.12 80.2283 13.25 80.6963 12.494C81.1763 11.738 81.8303 11.15 82.6583 10.73C83.4863 10.298 84.4343 10.082 85.5023 10.082C86.5703 10.082 87.5183 10.298 88.3463 10.73C89.1863 11.15 89.8403 11.738 90.3083 12.494C90.7763 13.25 91.0103 14.12 91.0103 15.104C91.0103 16.088 90.7763 16.964 90.3083 17.732C89.8403 18.488 89.1863 19.082 88.3463 19.514C87.5183 19.946 86.5703 20.162 85.5023 20.162ZM85.5023 17.444C85.8983 17.444 86.2463 17.354 86.5463 17.174C86.8583 16.994 87.1043 16.73 87.2843 16.382C87.4643 16.022 87.5543 15.596 87.5543 15.104C87.5543 14.612 87.4643 14.198 87.2843 13.862C87.1043 13.514 86.8583 13.25 86.5463 13.07C86.2463 12.89 85.8983 12.8 85.5023 12.8C85.1183 12.8 84.7703 12.89 84.4583 13.07C84.1583 13.25 83.9123 13.514 83.7203 13.862C83.5403 14.198 83.4503 14.612 83.4503 15.104C83.4503 15.596 83.5403 16.022 83.7203 16.382C83.9123 16.73 84.1583 16.994 84.4583 17.174C84.7703 17.354 85.1183 17.444 85.5023 17.444ZM105.303 10.082C106.059 10.082 106.731 10.238 107.319 10.55C107.919 10.85 108.387 11.318 108.723 11.954C109.071 12.59 109.245 13.412 109.245 14.42V20H105.825V14.978C105.825 14.282 105.693 13.778 105.429 13.466C105.165 13.142 104.805 12.98 104.349 12.98C104.025 12.98 103.731 13.058 103.467 13.214C103.203 13.37 102.999 13.61 102.855 13.934C102.711 14.246 102.639 14.654 102.639 15.158V20H99.2186V14.978C99.2186 14.282 99.0866 13.778 98.8226 13.466C98.5706 13.142 98.2106 12.98 97.7426 12.98C97.4066 12.98 97.1066 13.058 96.8426 13.214C96.5906 13.37 96.3866 13.61 96.2306 13.934C96.0866 14.246 96.0146 14.654 96.0146 15.158V20H92.5946V10.244H95.8526V12.962L95.2046 12.188C95.5646 11.492 96.0566 10.97 96.6806 10.622C97.3046 10.262 98.0006 10.082 98.7686 10.082C99.6446 10.082 100.413 10.31 101.073 10.766C101.745 11.21 102.195 11.906 102.423 12.854L101.307 12.62C101.655 11.828 102.177 11.21 102.873 10.766C103.581 10.31 104.391 10.082 105.303 10.082ZM116.638 20.162C115.486 20.162 114.478 19.946 113.614 19.514C112.762 19.07 112.096 18.47 111.616 17.714C111.148 16.946 110.914 16.076 110.914 15.104C110.914 14.132 111.142 13.268 111.598 12.512C112.066 11.744 112.708 11.15 113.524 10.73C114.34 10.298 115.258 10.082 116.278 10.082C117.238 10.082 118.114 10.28 118.906 10.676C119.698 11.06 120.328 11.63 120.796 12.386C121.264 13.142 121.498 14.06 121.498 15.14C121.498 15.26 121.492 15.398 121.48 15.554C121.468 15.71 121.456 15.854 121.444 15.986H113.722V14.186H119.626L118.33 14.69C118.342 14.246 118.258 13.862 118.078 13.538C117.91 13.214 117.67 12.962 117.358 12.782C117.058 12.602 116.704 12.512 116.296 12.512C115.888 12.512 115.528 12.602 115.216 12.782C114.916 12.962 114.682 13.22 114.514 13.556C114.346 13.88 114.262 14.264 114.262 14.708V15.23C114.262 15.71 114.358 16.124 114.55 16.472C114.754 16.82 115.042 17.09 115.414 17.282C115.786 17.462 116.23 17.552 116.746 17.552C117.226 17.552 117.634 17.486 117.97 17.354C118.318 17.21 118.66 16.994 118.996 16.706L120.796 18.578C120.328 19.094 119.752 19.49 119.068 19.766C118.384 20.03 117.574 20.162 116.638 20.162Z" fill="#FF662D"/>
<rect width="25.4546" height="25.4546" transform="matrix(-1 0 0 1 25.4546 0)" fill="#FF662D"/>
<rect width="14" height="20.3636" transform="matrix(-1 0 0 1 19.7273 5.09091)" fill="#0F1D2D"/>
<path d="M19.7273 5.09091L9.54547 7.63637V28L19.7273 25.4546V5.09091Z" fill="#FF662D"/>
</svg>
